<svg xmlns="http://www.w3.org/2000/svg" xmlns:xlink="http://www.w3.org/1999/xlink" width="500" zoomAndPan="magnify" viewBox="0 0 375 374.999991" height="500" preserveAspectRatio="xMidYMid meet" version="1.0"><defs><clipPath id="9f9c09e2d3"><path d="M 51.5625 0 L 323.8125 0 L 323.8125 375 L 51.5625 375 Z M 51.5625 0 " clip-rule="nonzero"/></clipPath></defs><g clip-path="url(#9f9c09e2d3)"><path fill="#a17222" d="M 165.761719 305.027344 C 160.441406 289.515625 150.707031 275.894531 137.753906 265.835938 L 105.910156 241.113281 C 73.210938 215.730469 53.351562 177.230469 51.628906 135.871094 C 51.628906 60.832031 112.460938 0 187.5 0 C 262.539062 0 323.371094 60.832031 323.371094 135.871094 C 321.648438 177.230469 301.789062 215.730469 269.089844 241.113281 L 237.246094 265.835938 C 224.292969 275.894531 214.558594 289.515625 209.238281 305.027344 L 205.496094 315.953125 C 202.855469 323.640625 195.628906 328.804688 187.5 328.804688 C 179.371094 328.804688 172.144531 323.640625 169.503906 315.953125 Z M 187.5 375 C 157.484375 375 133.152344 371.351562 133.152344 366.847656 C 133.152344 362.347656 157.484375 358.695312 187.5 358.695312 C 217.515625 358.695312 241.847656 362.347656 241.847656 366.847656 C 241.847656 371.351562 217.515625 375 187.5 375 Z M 187.5 241.847656 C 247.53125 241.847656 296.195312 193.183594 296.195312 133.152344 C 296.195312 73.121094 247.53125 24.457031 187.5 24.457031 C 127.46875 24.457031 78.804688 73.121094 78.804688 133.152344 C 78.804688 193.183594 127.46875 241.847656 187.5 241.847656 Z M 170.820312 73.371094 L 224.476562 73.371094 C 231.375 73.371094 239.257812 79.628906 242.386719 87.617188 L 252.496094 113.347656 C 252.761719 113.316406 253.019531 113.253906 253.300781 113.253906 L 261.0625 113.253906 C 265.453125 113.25 269.023438 117.289062 269.023438 122.285156 C 269.023438 127.269531 265.453125 131.3125 261.0625 131.3125 L 259.117188 131.3125 C 259.117188 131.328125 259.121094 131.335938 259.121094 131.347656 C 260.179688 134.46875 260.773438 137.871094 260.773438 141.441406 L 260.773438 152.019531 C 260.773438 162.367188 258.246094 171.292969 252.53125 175.644531 L 252.53125 187.265625 C 252.53125 193.101562 248.351562 197.832031 243.214844 197.832031 L 234.671875 197.832031 C 229.535156 197.832031 225.359375 193.09375 225.359375 187.265625 L 225.359375 178.449219 L 149.660156 178.449219 L 149.660156 187.265625 C 149.660156 193.101562 145.488281 197.832031 140.347656 197.832031 L 131.796875 197.832031 C 126.65625 197.832031 122.480469 193.09375 122.480469 187.265625 L 122.480469 175.644531 C 116.773438 171.292969 114.246094 162.371094 114.246094 152.019531 L 114.246094 141.441406 C 114.246094 137.878906 114.832031 134.472656 115.878906 131.363281 C 115.878906 131.347656 115.890625 131.335938 115.890625 131.3125 L 113.9375 131.3125 C 109.539062 131.3125 105.976562 127.269531 105.976562 122.292969 C 105.976562 117.300781 109.539062 113.253906 113.9375 113.253906 L 121.695312 113.253906 C 121.976562 113.253906 122.238281 113.320312 122.503906 113.347656 L 132.613281 87.625 C 135.808594 79.496094 143.507812 73.371094 150.523438 73.371094 Z M 134.671875 119.539062 C 134.671875 127.6875 241.832031 127.675781 241.832031 119.535156 C 241.832031 118.488281 241.628906 117.179688 241.617188 117.089844 C 239.71875 109.457031 232.425781 93.671875 232.425781 93.671875 C 230.660156 89.179688 226.230469 85.695312 223.601562 85.695312 L 152.925781 85.695312 C 150.296875 85.695312 145.867188 89.179688 144.097656 93.679688 C 144.097656 93.679688 137.683594 108.34375 134.894531 117.097656 C 134.871094 117.179688 134.671875 118.496094 134.671875 119.539062 Z M 155.472656 154.574219 C 155.472656 148.167969 150.257812 142.949219 143.824219 142.949219 C 137.398438 142.949219 132.179688 148.15625 132.179688 154.574219 C 132.179688 160.980469 137.394531 166.183594 143.824219 166.183594 C 150.257812 166.1875 155.472656 160.984375 155.472656 154.574219 Z M 245.730469 154.574219 C 245.730469 148.167969 240.519531 142.949219 234.085938 142.949219 C 227.660156 142.949219 222.4375 148.15625 222.4375 154.574219 C 222.4375 160.980469 227.652344 166.183594 234.085938 166.183594 C 240.523438 166.183594 245.730469 160.984375 245.730469 154.574219 Z M 170.234375 151.660156 C 169.203125 151.660156 168.367188 152.496094 168.367188 153.527344 C 168.367188 154.558594 169.203125 155.394531 170.234375 155.394531 L 206.425781 155.394531 C 207.457031 155.394531 208.292969 154.558594 208.292969 153.527344 C 208.292969 152.496094 207.457031 151.660156 206.425781 151.660156 Z M 170.234375 160.375 C 169.203125 160.375 168.367188 161.210938 168.367188 162.238281 C 168.367188 163.269531 169.203125 164.105469 170.234375 164.105469 L 206.425781 164.105469 C 207.457031 164.105469 208.292969 163.269531 208.292969 162.238281 C 208.292969 161.210938 207.457031 160.375 206.425781 160.375 Z M 170.234375 160.375 " fill-opacity="1" fill-rule="nonzero"/></g></svg>