<svg xmlns="http://www.w3.org/2000/svg" xmlns:xlink="http://www.w3.org/1999/xlink" width="500" zoomAndPan="magnify" viewBox="0 0 375 374.999991" height="500" preserveAspectRatio="xMidYMid meet" version="1.0"><defs><g/><clipPath id="b222a425c3"><path d="M 123.800781 60.761719 L 251.300781 60.761719 L 251.300781 236.261719 L 123.800781 236.261719 Z M 123.800781 60.761719 " clip-rule="nonzero"/></clipPath></defs><g clip-path="url(#b222a425c3)"><path fill="#383838" d="M 177.308594 203.695312 C 174.816406 196.425781 170.253906 190.042969 164.183594 185.332031 L 149.261719 173.746094 C 133.941406 161.851562 124.636719 143.808594 123.828125 124.429688 C 123.828125 89.265625 152.332031 60.761719 187.496094 60.761719 C 222.660156 60.761719 251.164062 89.265625 251.164062 124.429688 C 250.355469 143.808594 241.050781 161.851562 225.730469 173.746094 L 210.808594 185.332031 C 204.738281 190.042969 200.175781 196.425781 197.683594 203.695312 L 195.929688 208.816406 C 194.691406 212.417969 191.304688 214.835938 187.496094 214.835938 C 183.6875 214.835938 180.300781 212.417969 179.0625 208.816406 Z M 187.496094 236.484375 C 173.429688 236.484375 162.027344 234.773438 162.027344 232.664062 C 162.027344 230.554688 173.429688 228.84375 187.496094 228.84375 C 201.5625 228.84375 212.964844 230.554688 212.964844 232.664062 C 212.964844 234.773438 201.5625 236.484375 187.496094 236.484375 Z M 187.496094 174.089844 C 215.625 174.089844 238.429688 151.285156 238.429688 123.15625 C 238.429688 95.027344 215.625 72.222656 187.496094 72.222656 C 159.367188 72.222656 136.5625 95.027344 136.5625 123.15625 C 136.5625 151.285156 159.367188 174.089844 187.496094 174.089844 Z M 179.679688 95.144531 L 204.824219 95.144531 C 208.054688 95.144531 211.75 98.074219 213.214844 101.820312 L 217.953125 113.875 C 218.078125 113.859375 218.195312 113.832031 218.328125 113.832031 L 221.96875 113.832031 C 224.023438 113.828125 225.695312 115.722656 225.695312 118.0625 C 225.695312 120.398438 224.023438 122.292969 221.96875 122.292969 L 221.054688 122.292969 C 221.054688 122.300781 221.058594 122.304688 221.058594 122.3125 C 221.554688 123.773438 221.832031 125.367188 221.832031 127.039062 L 221.832031 131.996094 C 221.832031 136.84375 220.648438 141.027344 217.96875 143.066406 L 217.96875 148.511719 C 217.96875 151.246094 216.011719 153.464844 213.605469 153.464844 L 209.601562 153.464844 C 207.195312 153.464844 205.238281 151.246094 205.238281 148.511719 L 205.238281 144.382812 L 169.765625 144.382812 L 169.765625 148.511719 C 169.765625 151.246094 167.808594 153.464844 165.398438 153.464844 L 161.394531 153.464844 C 158.984375 153.464844 157.027344 151.246094 157.027344 148.511719 L 157.027344 143.066406 C 154.355469 141.027344 153.167969 136.847656 153.167969 131.996094 L 153.167969 127.039062 C 153.167969 125.371094 153.445312 123.777344 153.933594 122.316406 C 153.933594 122.3125 153.941406 122.304688 153.941406 122.292969 L 153.023438 122.292969 C 150.964844 122.292969 149.296875 120.398438 149.296875 118.066406 C 149.296875 115.726562 150.964844 113.832031 153.023438 113.832031 L 156.660156 113.832031 C 156.792969 113.832031 156.914062 113.863281 157.039062 113.875 L 161.777344 101.820312 C 163.273438 98.015625 166.882812 95.144531 170.167969 95.144531 Z M 162.742188 116.777344 C 162.742188 120.59375 212.957031 120.589844 212.957031 116.777344 C 212.957031 116.285156 212.859375 115.671875 212.855469 115.628906 C 211.964844 112.050781 208.546875 104.65625 208.546875 104.65625 C 207.71875 102.550781 205.644531 100.917969 204.414062 100.917969 L 171.292969 100.917969 C 170.0625 100.917969 167.988281 102.550781 167.160156 104.660156 C 167.160156 104.660156 164.152344 111.53125 162.847656 115.632812 C 162.832031 115.671875 162.742188 116.289062 162.742188 116.777344 Z M 172.488281 133.195312 C 172.488281 130.191406 170.042969 127.746094 167.03125 127.746094 C 164.019531 127.746094 161.574219 130.1875 161.574219 133.195312 C 161.574219 136.195312 164.015625 138.632812 167.03125 138.632812 C 170.042969 138.636719 172.488281 136.199219 172.488281 133.195312 Z M 214.78125 133.195312 C 214.78125 130.191406 212.339844 127.746094 209.324219 127.746094 C 206.3125 127.746094 203.867188 130.1875 203.867188 133.195312 C 203.867188 136.195312 206.308594 138.632812 209.324219 138.632812 C 212.34375 138.632812 214.78125 136.199219 214.78125 133.195312 Z M 179.40625 131.828125 C 178.921875 131.828125 178.53125 132.222656 178.53125 132.703125 C 178.53125 133.1875 178.921875 133.578125 179.40625 133.578125 L 196.363281 133.578125 C 196.847656 133.578125 197.238281 133.1875 197.238281 132.703125 C 197.238281 132.222656 196.847656 131.828125 196.363281 131.828125 Z M 179.40625 135.910156 C 178.921875 135.910156 178.53125 136.304688 178.53125 136.785156 C 178.53125 137.269531 178.921875 137.660156 179.40625 137.660156 L 196.363281 137.660156 C 196.847656 137.660156 197.238281 137.269531 197.238281 136.785156 C 197.238281 136.304688 196.847656 135.910156 196.363281 135.910156 Z M 179.40625 135.910156 " fill-opacity="1" fill-rule="nonzero"/></g><g fill="#a17222" fill-opacity="1"><g transform="translate(73.846867, 298.238227)"><g><path d="M 40.625 -8.453125 L 40.625 0 L 5.390625 0 L 5.390625 -45.5 L 39.78125 -45.5 L 39.78125 -37.046875 L 15.859375 -37.046875 L 15.859375 -27.171875 L 36.984375 -27.171875 L 36.984375 -18.984375 L 15.859375 -18.984375 L 15.859375 -8.453125 Z M 40.625 -8.453125 "/></g></g></g><g fill="#a17222" fill-opacity="1"><g transform="translate(117.456659, 298.238227)"><g><path d="M 3.375 -22.359375 L 21.78125 -22.359375 L 21.78125 -14.234375 L 3.375 -14.234375 Z M 3.375 -22.359375 "/></g></g></g><g fill="#a17222" fill-opacity="1"><g transform="translate(142.543663, 298.238227)"><g><path d="M 25.09375 -45.5 C 29.125 -45.5 32.625 -44.828125 35.59375 -43.484375 C 38.5625 -42.140625 40.84375 -40.234375 42.4375 -37.765625 C 44.039062 -35.296875 44.84375 -32.367188 44.84375 -28.984375 C 44.84375 -25.648438 44.039062 -22.738281 42.4375 -20.25 C 40.84375 -17.757812 38.5625 -15.851562 35.59375 -14.53125 C 32.625 -13.207031 29.125 -12.546875 25.09375 -12.546875 L 15.921875 -12.546875 L 15.921875 0 L 5.390625 0 L 5.390625 -45.5 Z M 24.5 -21.125 C 27.664062 -21.125 30.070312 -21.804688 31.71875 -23.171875 C 33.363281 -24.535156 34.1875 -26.472656 34.1875 -28.984375 C 34.1875 -31.546875 33.363281 -33.507812 31.71875 -34.875 C 30.070312 -36.238281 27.664062 -36.921875 24.5 -36.921875 L 15.921875 -36.921875 L 15.921875 -21.125 Z M 24.5 -21.125 "/></g></g></g><g fill="#a17222" fill-opacity="1"><g transform="translate(190.117985, 298.238227)"><g><path d="M 18.78125 -35.484375 C 24.195312 -35.484375 28.359375 -34.191406 31.265625 -31.609375 C 34.171875 -29.035156 35.625 -25.148438 35.625 -19.953125 L 35.625 0 L 26.125 0 L 26.125 -4.359375 C 24.21875 -1.109375 20.664062 0.515625 15.46875 0.515625 C 12.78125 0.515625 10.453125 0.0625 8.484375 -0.84375 C 6.515625 -1.75 5.007812 -3.003906 3.96875 -4.609375 C 2.925781 -6.210938 2.40625 -8.035156 2.40625 -10.078125 C 2.40625 -13.328125 3.628906 -15.882812 6.078125 -17.75 C 8.523438 -19.613281 12.304688 -20.546875 17.421875 -20.546875 L 25.484375 -20.546875 C 25.484375 -22.753906 24.8125 -24.453125 23.46875 -25.640625 C 22.125 -26.835938 20.109375 -27.4375 17.421875 -27.4375 C 15.554688 -27.4375 13.722656 -27.140625 11.921875 -26.546875 C 10.128906 -25.960938 8.601562 -25.175781 7.34375 -24.1875 L 3.703125 -31.265625 C 5.609375 -32.609375 7.894531 -33.644531 10.5625 -34.375 C 13.226562 -35.113281 15.96875 -35.484375 18.78125 -35.484375 Z M 18 -6.3125 C 19.738281 -6.3125 21.28125 -6.707031 22.625 -7.5 C 23.96875 -8.300781 24.921875 -9.484375 25.484375 -11.046875 L 25.484375 -14.625 L 18.53125 -14.625 C 14.363281 -14.625 12.28125 -13.257812 12.28125 -10.53125 C 12.28125 -9.226562 12.789062 -8.195312 13.8125 -7.4375 C 14.832031 -6.6875 16.226562 -6.3125 18 -6.3125 Z M 18 -6.3125 "/></g></g></g><g fill="#a17222" fill-opacity="1"><g transform="translate(230.218194, 298.238227)"><g><path d="M 14.359375 -30.359375 C 15.578125 -32.046875 17.210938 -33.320312 19.265625 -34.1875 C 21.328125 -35.050781 23.703125 -35.484375 26.390625 -35.484375 L 26.390625 -26.125 C 25.265625 -26.21875 24.503906 -26.265625 24.109375 -26.265625 C 21.210938 -26.265625 18.9375 -25.453125 17.28125 -23.828125 C 15.632812 -22.203125 14.8125 -19.765625 14.8125 -16.515625 L 14.8125 0 L 4.6875 0 L 4.6875 -34.96875 L 14.359375 -34.96875 Z M 14.359375 -30.359375 "/></g></g></g><g fill="#a17222" fill-opacity="1"><g transform="translate(258.22985, 298.238227)"><g><path d="M 19.6875 -13.71875 L 14.8125 -8.90625 L 14.8125 0 L 4.6875 0 L 4.6875 -48.234375 L 14.8125 -48.234375 L 14.8125 -20.9375 L 29.640625 -34.96875 L 41.734375 -34.96875 L 27.171875 -20.15625 L 43.03125 0 L 30.75 0 Z M 19.6875 -13.71875 "/></g></g></g></svg>